<?xml version="1.0" standalone="no"?>
<!DOCTYPE svg PUBLIC "-//W3C//DTD SVG 20010904//EN"
 "http://www.w3.org/TR/2001/REC-SVG-20010904/DTD/svg10.dtd">
<svg version="1.0" xmlns="http://www.w3.org/2000/svg"
 width="442.000000pt" height="447.000000pt" viewBox="0 0 442.000000 447.000000"
 preserveAspectRatio="xMidYMid meet">
<metadata>
Created by potrace 1.16, written by Peter Selinger 2001-2019
</metadata>
<g transform="translate(0.000000,447.000000) scale(0.100000,-0.100000)"
fill="#000000" stroke="none">
<path d="M1630 4395 c-187 -52 -372 -133 -518 -229 -190 -124 -294 -225 -507
-496 -76 -96 -145 -184 -154 -195 -9 -11 7 0 34 25 207 188 469 323 774 401
63 15 118 32 122 36 15 17 349 474 349 478 0 7 -6 6 -100 -20z"/>
<path d="M1060 3313 l-92 -135 35 -757 c19 -416 33 -758 31 -759 -1 -2 -34 38
-72 90 -189 257 -305 517 -358 803 -22 116 -29 356 -15 467 13 95 41 213 67
282 8 21 12 41 8 45 -3 3 -44 -34 -90 -82 -152 -159 -249 -319 -314 -514 -168
-513 -24 -1108 396 -1633 81 -101 260 -280 366 -368 l77 -63 167 281 c91 154
171 280 176 280 5 0 6 4 3 10 -4 7 51 10 158 10 193 0 301 16 427 63 112 43
212 103 295 179 146 134 218 263 275 492 37 150 38 151 44 101 32 -252 109
-422 263 -585 216 -228 496 -342 848 -344 216 -1 394 37 555 119 59 30 56 14
36 255 l-13 155 -93 155 c-51 85 -95 158 -99 163 -4 4 -33 -4 -63 -18 -94 -43
-187 -58 -328 -52 -137 5 -213 25 -309 79 -112 64 -204 188 -232 313 -11 51
-11 55 16 102 45 76 125 147 217 193 115 56 204 73 353 67 136 -6 208 -22 314
-73 41 -19 77 -31 80 -26 3 5 57 87 120 181 l114 171 -16 141 c-9 77 -19 145
-22 149 -13 20 -142 83 -237 115 -138 46 -256 65 -402 65 -417 0 -767 -200
-931 -533 -30 -61 -59 -143 -84 -242 -29 -112 -40 -140 -40 -110 -1 22 -10 81
-20 130 -70 342 -333 618 -686 720 -107 31 -245 42 -591 49 l-241 4 -93 -135z
m684 -593 c75 -28 188 -111 237 -172 79 -100 129 -231 129 -340 0 -43 -3 -49
-47 -87 -93 -79 -214 -121 -349 -121 l-81 0 -7 263 c-3 144 -9 313 -13 376
l-6 114 41 -7 c23 -3 66 -15 96 -26z"/>
</g>
</svg>
